<?xml version="1.0" standalone="no"?>
<!DOCTYPE svg PUBLIC "-//W3C//DTD SVG 20010904//EN"
 "http://www.w3.org/TR/2001/REC-SVG-20010904/DTD/svg10.dtd">
<svg version="1.0" xmlns="http://www.w3.org/2000/svg"
 width="512.000000pt" height="512.000000pt" viewBox="0 0 512.000000 512.000000"
 preserveAspectRatio="xMidYMid meet">
<metadata>
Created by potrace 1.14, written by Peter Selinger 2001-2017
</metadata>
<g transform="translate(0.000000,512.000000) scale(0.100000,-0.100000)"
fill="#000000" stroke="none">
<path d="M1420 5102 l-25 -20 -5 -363 -5 -362 -25 -4 c-14 -2 -59 -11 -100
-19 -41 -9 -88 -18 -105 -21 -16 -2 -106 -20 -200 -38 -93 -19 -181 -36 -195
-38 -14 -3 -83 -16 -155 -30 -71 -14 -146 -29 -165 -32 -68 -11 -100 -27 -115
-55 -13 -26 -12 -42 16 -182 17 -84 33 -164 35 -178 2 -14 7 -36 9 -50 3 -14
7 -36 10 -50 3 -14 21 -108 41 -210 20 -102 38 -194 40 -205 2 -11 6 -31 9
-45 7 -33 13 -63 26 -135 6 -33 19 -105 30 -160 24 -122 98 -500 104 -535 2
-14 20 -105 40 -203 34 -175 39 -201 50 -262 3 -16 12 -61 20 -100 8 -38 16
-84 19 -101 3 -17 23 -121 45 -230 21 -109 42 -215 45 -234 3 -19 8 -46 11
-60 3 -14 12 -61 21 -105 8 -44 26 -134 39 -200 13 -66 26 -131 28 -145 10
-55 20 -106 23 -120 25 -129 67 -341 85 -437 27 -146 40 -168 101 -167 40 1
117 12 128 19 3 2 26 6 50 10 25 4 110 20 190 36 80 16 159 32 175 34 17 3 50
10 75 15 40 8 427 82 490 94 14 2 142 27 285 55 143 28 271 53 285 56 14 3 61
12 105 21 44 8 91 17 105 20 72 13 651 126 690 134 25 5 61 12 80 15 19 3 46
14 59 23 14 10 100 130 192 267 93 138 173 257 179 265 6 8 50 74 98 145 48
72 166 247 263 390 97 143 178 267 181 276 4 9 2 36 -2 60 -5 24 -25 130 -45
234 -20 105 -38 197 -40 205 -3 17 -34 180 -42 220 -2 14 -24 126 -49 250 -25
124 -47 241 -50 260 -3 19 -9 53 -14 75 -5 22 -12 56 -15 75 -3 19 -21 112
-40 205 -19 94 -37 186 -40 205 -23 136 -35 176 -61 197 -15 11 -33 19 -40 16
-16 -6 -21 3 -28 62 -4 28 -11 67 -17 88 -9 36 -8 40 22 68 33 31 34 43 14
139 -3 14 -12 59 -20 100 -8 41 -17 86 -20 100 -7 31 -14 72 -25 130 -33 188
-54 278 -71 299 -20 25 -48 29 -109 18 -19 -4 -48 -9 -65 -12 -16 -3 -37 -8
-45 -10 -8 -3 -32 -7 -54 -11 -21 -3 -46 -7 -55 -9 -9 -2 -205 -40 -436 -85
-231 -45 -429 -84 -440 -86 -29 -6 -126 -25 -155 -30 -14 -2 -81 -16 -150 -29
-69 -13 -140 -27 -159 -30 -19 -3 -38 -8 -43 -11 -4 -3 -8 107 -8 244 0 276
-2 286 -65 297 -25 5 -47 -6 -135 -64 -58 -39 -109 -71 -115 -71 -5 0 -57 32
-115 70 -57 39 -114 70 -125 70 -12 0 -71 -33 -132 -73 l-110 -73 -100 68
c-115 78 -148 89 -183 60z"/>
</g>
</svg>
